<svg width="57" height="53" viewBox="0 0 57 53" fill="none" xmlns="http://www.w3.org/2000/svg">
<path d="M1.41669 28.8833V24.1166C1.41669 21.3 3.71877 18.9708 6.56252 18.9708C11.4646 18.9708 13.4688 15.5041 11.0042 11.2521C9.59585 8.81455 10.4354 5.6458 12.9 4.23747L17.5854 1.55622C19.725 0.283304 22.4875 1.04164 23.7604 3.18122L24.0584 3.6958C26.4959 7.94789 30.5042 7.94789 32.9688 3.6958L33.2667 3.18122C34.5396 1.04164 37.3021 0.283304 39.4417 1.55622L44.1271 4.23747C46.5917 5.6458 47.4313 8.81455 46.0229 11.2521C43.5584 15.5041 45.5625 18.9708 50.4646 18.9708C53.2813 18.9708 55.6104 21.2729 55.6104 24.1166V28.8833C55.6104 31.7 53.3084 34.0291 50.4646 34.0291C45.5625 34.0291 43.5584 37.4958 46.0229 41.7479C47.4313 44.2125 46.5917 47.3541 44.1271 48.7625L39.4417 51.4437C37.3021 52.7166 34.5396 51.9583 33.2667 49.8187L32.9688 49.3041C30.5313 45.0521 26.5229 45.0521 24.0584 49.3041L23.7604 49.8187C22.4875 51.9583 19.725 52.7166 17.5854 51.4437L12.9 48.7625C11.7195 48.0827 10.8568 46.9624 10.5014 45.6473C10.1459 44.3322 10.3268 42.9298 11.0042 41.7479C13.4688 37.4958 11.4646 34.0291 6.56252 34.0291C3.71877 34.0291 1.41669 31.7 1.41669 28.8833Z" stroke="#FFF7F7" stroke-width="1.5" stroke-miterlimit="10" stroke-linecap="round" stroke-linejoin="round"/>
</svg>
